<?xml version="1.0" encoding="UTF-8"?>
<svg width="563px" height="350px" viewBox="0 0 563 350" version="1.1" xmlns="http://www.w3.org/2000/svg" xmlns:xlink="http://www.w3.org/1999/xlink">
    <!-- Generator: Sketch 40.3 (33839) - http://www.bohemiancoding.com/sketch -->
    <title>Group</title>
    <desc>Created with Sketch.</desc>
    <defs></defs>
    <g id="wind-1-page-1" stroke="none" stroke-width="1" fill="none" fill-rule="evenodd">
        <g id="wind-1" transform="translate(0.000000, 1.000000)" stroke="#FFFFFF" stroke-width="2" fill="#000000">
            <path d="M112,165.493629 C112,165.493629 209.458106,172.731582 235.883991,150.091603 C268.542867,122.111604 275.798527,97.6193169 274.17121,62.5214089 C273.353626,44.8878063 260.542251,10.4599537 209.030507,7.09888382 C157.518762,3.73781393 139.312705,87.0313909 162.185966,108.678637 C162.185966,108.678637 152.016488,72.2090699 164.848073,51.9101279 C177.679657,31.6111859 197.380241,20.3192537 213.297288,22.7425266 C261.488056,33.3359441 258.632225,84.055877 252.096214,103.756951 C245.560204,123.458026 226.635712,142.224068 203.600766,152.061186 C180.565819,161.898304 112,165.493629 112,165.493629 Z" id="Path"></path>
            <path d="M285,167.797173 C285,167.797173 355.589052,173.039633 374.72936,156.641463 C398.384233,136.375508 403.639519,118.635707 402.46085,93.2142397 C401.868674,80.4421949 392.589375,55.5060497 355.279341,53.0716217 C317.969308,50.6371937 304.782633,110.966856 321.34977,126.645989 C321.34977,126.645989 313.984002,100.231027 323.277938,85.528473 C332.571874,70.8259188 346.841037,62.6471554 358.369778,64.4023357 C393.274423,72.0751638 391.20594,108.811687 386.471898,123.081205 C381.737856,137.350723 368.030818,150.942996 351.346572,158.068035 C334.662326,165.193074 285,167.797173 285,167.797173 Z" id="Path-Copy"></path>
            <path d="M312,347.165253 C312,347.165253 385.889897,352.652858 405.925234,335.487886 C430.686242,314.274266 436.187273,295.704927 434.953488,269.094715 C434.33362,255.725431 424.620409,229.623236 385.565704,227.074971 C346.511,224.526706 332.707698,287.67747 350.049538,304.089781 C350.049538,304.089781 342.339336,276.439618 352.06787,261.049551 C361.796403,245.659484 376.732812,237.09827 388.800654,238.935525 C425.33749,246.967146 423.172282,285.421522 418.216869,300.358303 C413.261457,315.295083 398.913458,329.52295 381.449033,336.981166 C363.984607,344.439382 312,347.165253 312,347.165253 Z" id="Path-Copy-2" transform="translate(373.557217, 287.500000) scale(1, -1) translate(-373.557217, -287.500000) "></path>
            <path d="M151,286.582342 C151,286.582342 169.947072,255.590346 207.267647,248.928796 C244.588223,242.267247 309.869692,249.843927 309.869692,249.843927 C309.869692,249.843927 271.870287,229 243.690278,229 C215.510268,229 186.270217,238.507344 172.879357,250.937358 C159.488496,263.367371 151,286.582342 151,286.582342 Z" id="Path-2"></path>
            <path d="M74,255.707863 C74,255.707863 85.0913393,237.565601 106.93826,233.666027 C128.78518,229.766453 167,234.201731 167,234.201731 C167,234.201731 144.755703,222 128.259536,222 C111.76337,222 94.6466706,227.565461 86.8078561,234.841809 C78.9690417,242.118158 74,255.707863 74,255.707863 Z" id="Path-2-Copy" transform="translate(120.500000, 238.853931) rotate(-17.000000) translate(-120.500000, -238.853931) "></path>
            <path d="M0.367914768,175.90096 C0.367914768,175.90096 168.33569,206.362249 248.550605,210.317789 C328.76552,214.273329 440.38986,187.945888 459.809626,187.945888 C479.229393,187.945888 524.278303,202.77253 537.865268,227.992113 C551.452232,253.211696 540.836643,282.897963 530.270531,290.654875 C519.704419,298.411787 493.168195,305.871836 475.056823,289.827508 C456.945451,273.78318 473.905106,231.557214 473.905106,231.557214 C473.905106,231.557214 445.098432,254.671271 452.454029,280.523062 C459.809626,306.374853 473.979321,316.28127 505.922294,316.28127 C537.865268,316.28127 560.538321,283.287726 561.822802,257.872983 C563.107283,232.45824 552.93318,215.596757 537.865268,201.251823 C522.797355,186.906889 485.985908,184.863747 482.206266,176.607384 C478.426623,168.35102 518.024059,145.869609 522.522729,132.744835 C527.021399,119.620062 529.011763,99.217265 512.613847,74.0975292 C496.215931,48.9777935 419.900838,0.452373248 419.900838,0.452373248 C419.900838,0.452373248 510.023397,73.6372678 510.023397,103.878778 C510.023397,134.120288 476.109586,170.612407 453.207181,170.612407 C475.056823,109.34628 442.540328,85.98158 442.540328,85.98158 C442.540328,85.98158 467.21635,128.946787 437.501052,158.366822 C413.668265,181.962796 346.044665,193.578161 268.651512,191.827825 C94.7626965,187.895127 0.367914768,175.90096 0.367914768,175.90096 Z" id="Path-3"></path>
        </g>
    </g>
</svg>