<?xml version="1.0" encoding="UTF-8"?>
<svg width="1204px" height="361px" viewBox="0 0 1204 361" version="1.1" xmlns="http://www.w3.org/2000/svg" xmlns:xlink="http://www.w3.org/1999/xlink">
    <g id="wind-2-page-1" stroke="none" stroke-width="1" fill="none" fill-rule="evenodd">
        <g id="wind-2" transform="translate(2.000000, 1.000000)" stroke="#FFFFFF" stroke-width="2" fill="#000000">
            <path d="M114,135.51204 C114,135.51204 153.380199,89.9645919 235.379225,94.3552181 C317.378251,98.7458443 454.264446,135.83301 582.143705,186.201062 C710.022964,236.569115 805.990417,248.006754 878.883419,252.351145 C951.776421,256.695535 1063.01114,235.261011 1075.66826,141.634692 C1088.32537,48.0083736 969.869306,13.7857134 969.869306,13.7857134 C969.869306,13.7857134 865.354235,-14.7563849 803.770403,10.2974366 C742.186572,35.351258 702.440807,83.6844824 702.440807,83.6844824 C702.440807,83.6844824 794.861974,23.8932377 882.36564,23.8932377 C969.869306,23.8932377 1022.89596,59.4557322 1042.89875,89.9645919 C1062.90155,120.473452 1048.1358,169.437322 1017.50334,195.367881 C986.870883,221.29844 908.129485,240.599415 760.35468,207.045938 C612.579876,173.492462 409.246687,97.1251694 366.318689,89.9645919 C323.390692,82.8040143 241.96847,67.726169 179.956621,89.9645919 C117.944772,112.203015 114,135.51204 114,135.51204 Z" id="Path-4"></path>
            <path d="M1.13686838e-13,224.51204 C1.13686838e-13,224.51204 39.380199,178.964592 121.379225,183.355218 C203.378251,187.745844 340.264446,224.83301 468.143705,275.201062 C596.022964,325.569115 799.758293,372.006176 941.542332,354.089952 C1152.03403,316.608438 1198.0499,152.550494 1198.0499,152.550494 C1198.0499,152.550494 1153.71799,236.202053 1083.78183,282.477246 C1026.76498,320.204017 952.519864,323.501358 941.542332,324.297554 C856.500445,330.465608 698.647915,307.919545 646.35468,296.045938 C498.579876,262.492462 295.246687,186.125169 252.318689,178.964592 C209.390692,171.804014 127.96847,156.726169 65.9566209,178.964592 C3.94477212,201.203015 1.13686838e-13,224.51204 1.13686838e-13,224.51204 Z" id="Path-4-Copy"></path>
        </g>
    </g>
</svg>